<?xml version="1.0" encoding="utf-8"?>
<!-- Svg Vector Icons : http://www.onlinewebfonts.com/icon -->
<!DOCTYPE svg PUBLIC "-//W3C//DTD SVG 1.1//EN" "http://www.w3.org/Graphics/SVG/1.1/DTD/svg11.dtd">
<svg version="1.1" xmlns="http://www.w3.org/2000/svg" xmlns:xlink="http://www.w3.org/1999/xlink" x="0px" y="0px" viewBox="0 0 1000 1000" enable-background="new 0 0 1000 1000" xml:space="preserve">
<metadata> Svg Vector Icons : http://www.onlinewebfonts.com/icon </metadata>
<g><path d="M153.5,846.5c-191.3-191.3-191.3-501.6,0-692.9c191.4-191.3,501.6-191.3,693,0c191.3,191.3,191.3,501.6,0,692.9C655.1,1037.8,344.9,1037.8,153.5,846.5z M759.9,240.1c-143.6-143.5-376.2-143.5-519.7,0c-143.6,143.5-143.6,376.2,0,519.7c143.5,143.5,376.2,143.5,519.7,0C903.4,616.3,903.4,383.7,759.9,240.1z M370.1,716.5l-86.6-86.6L413.4,500L283.5,370.1l86.6-86.6L500,413.4l129.9-129.9l86.6,86.6L586.6,500l129.9,129.9l-86.6,86.6L500,586.6L370.1,716.5z"/></g>
</svg>